<svg width="42" height="42" viewBox="0 0 42 42" fill="none" xmlns="http://www.w3.org/2000/svg">
  <!-- First server -->
  <rect x="5" y="5" width="32" height="8" rx="2" fill="url(#paint0_linear)" />
  <circle cx="10" cy="9" r="1.5" fill="url(#paint4_linear)" />
  <rect x="13" y="8" width="20" height="2" rx="1" fill="url(#paint3_linear)" />

  <!-- Second server -->
  <rect x="5" y="15" width="32" height="8" rx="2" fill="url(#paint0_linear)" />
  <circle cx="10" cy="19" r="1.5" fill="url(#paint4_linear)" />
  <rect x="13" y="18" width="20" height="2" rx="1" fill="url(#paint3_linear)" />

  <!-- Third server -->
  <rect x="5" y="25" width="32" height="8" rx="2" fill="url(#paint0_linear)" />
  <circle cx="10" cy="29" r="1.5" fill="url(#paint4_linear)" />
  <rect x="13" y="28" width="20" height="2" rx="1" fill="url(#paint3_linear)" />

  <!-- Enlarged Cloud -->
  <path
    d="M22 34C22 31.5 25 29 30 29C33 29 35 30.5 35 30.5C37 30.5 39 32.5 39 35C39 37.5 37 39 33 39H28C24 39 22 37 22 34Z"
    fill="url(#paint1_linear)"
  />

  <!-- Gradients -->
  <defs>
    <!-- Gradient for servers -->
    <linearGradient id="paint0_linear" x1="5" y1="5" x2="37" y2="13" gradientUnits="userSpaceOnUse">
      <stop offset="0.259336" stop-color="#FFDB6E" />
      <stop offset="1" stop-color="#FFBC5E" />
    </linearGradient>

    <!-- Gradient for cloud -->
    <linearGradient id="paint1_linear" x1="22" y1="29" x2="39" y2="39" gradientUnits="userSpaceOnUse">
      <stop offset="0.259336" stop-color="#FFDB6E" />
      <stop offset="1" stop-color="#FFBC5E" />
    </linearGradient>

    <!-- Gradient for indicators -->
    <linearGradient id="paint3_linear" x1="13" y1="8" x2="33" y2="9" gradientUnits="userSpaceOnUse">
      <stop offset="0.259336" stop-color="#FFDB6E" />
      <stop offset="1" stop-color="#FFBC5E" />
    </linearGradient>

    <!-- Gradient for indicator lights -->
    <linearGradient id="paint4_linear" x1="10" y1="8" x2="12" y2="10" gradientUnits="userSpaceOnUse">
      <stop offset="0.259336" stop-color="#FFDB6E" />
      <stop offset="1" stop-color="#FFBC5E" />
    </linearGradient>
  </defs>
</svg>
