<svg height="800px" width="800px" version="1.1" id="Layer_1" xmlns="http://www.w3.org/2000/svg" xmlns:xlink="http://www.w3.org/1999/xlink" 
     viewBox="0 0 508 508" xml:space="preserve">
<path style="fill:#FFBC5E;" d="M472,56h-2H36C19.6,56,6,67.6,6,84v48c0,16.4,13.6,32,30,32h436c16.4,0,30-15.6,30-32V86v-2
    C502,67.6,488.4,56,472,56z"/>
<path style="fill:#FFDB6E;" d="M102,101.6v8.4c0,7.6,8,18,16,18h216.4c7.6,0,12-10,12-18v-8.4c0-7.6-4-9.6-12-9.6H118
    C110,92,102,94,102,101.6z"/>
<path style="fill:#606060;" d="M63.2,88.8C61.6,88.4,59.6,88,58,88c-9.6,0-17.6,8-17.6,17.6s8,17.6,17.6,17.6s17.6-8,17.6-17.6
    c0-2.4-0.4-3.6-0.8-5.2C71.6,92.4,63.2,88.8,63.2,88.8z"/>
<path style="fill:#FFBC5E;" d="M472,200h-2H36c-16.4,0-30,11.6-30,28v48c0,16.4,13.6,32,30,32h436c16.4,0,30-15.6,30-32v-46v-2
    C502,211.6,488.4,200,472,200z"/>
<path style="fill:#FFDB6E;" d="M102,245.6v8.4c0,8,8,18,16,18h216.4c7.6,0,12-10,12-18v-8.4c0-7.6-4-9.6-12-9.6H118
    C110,236,102,238,102,245.6z"/>
<path style="fill:#606060;" d="M63.2,232.8c-1.6-0.4-3.6-0.8-5.6-0.8C48,232,40,240,40,249.6s8,17.6,17.6,17.6s17.6-8,17.6-17.6
    c0-2-0.4-3.6-0.8-5.2C71.6,235.6,63.2,232.8,63.2,232.8z"/>
<g>
    <path style="fill:#FFCC66;" d="M462,239.6c-5.6,0-10.4,4.4-10.4,10s4.4,10,10.4,10c3.2,0,6.4-1.6,8.4-4c1.2-1.2,2.4-3.2,1.6-6
        C470.4,240,463.6,239.6,462,239.6z"/>
    <path style="fill:#FFCC66;" d="M421.6,239.6c-5.2,0-10,4.4-10,10s4.4,10,10,10c2.8,0,5.2-1.2,7.2-3.2s2.8-4.4,2.8-7.2
        C432,240.8,422,239.6,421.6,239.6z"/>
    <path style="fill:#FFCC66;" d="M382,239.6c-5.6,0-10,4.4-10,10s4.4,10,10,10c2.8,0,5.6-1.2,7.6-3.2s2.8-4.4,2.8-6.8
        C391.6,240,383.2,239.6,382,239.6z"/>
</g>
<path style="fill:#FFBC5E;" d="M472,344h-2H36c-16.4,0-30,11.6-30,28v48c0,16.4,13.6,32,30,32h436c16.4,0,30-15.6,30-32v-46v-2
    C502,355.6,488.4,344,472,344z"/>
<path style="fill:#FFDB6E;" d="M102,389.2v8.4c0,7.6,8.4,18.4,16,18.4h216.4c7.6,0,12-10.4,12-18.4v-8.4c0-7.6-4-9.2-12-9.2H118
    C110,380,102,382,102,389.2z"/>
<path style="fill:#606060;" d="M63.6,376.8c-2-0.8-4-0.8-5.6-0.8c-9.6,0-17.6,8-17.6,17.6s8,17.6,17.6,17.6s17.6-8,17.6-17.6
    c0-1.6-0.4-3.6-0.8-5.2C71.6,378,64,376.8,63.6,376.8z"/>
</svg>
